<svg width="207" height="352" viewBox="0 0 207 352" fill="none" xmlns="http://www.w3.org/2000/svg">
<path d="M176.974 50.8784C157.757 75.6287 116.206 136.047 103.739 179.717M103.739 179.717C120.701 161.147 160.976 127.663 186.383 142.291C185.116 175.87 166.815 230.367 103.739 179.717ZM103.739 179.717C108.88 146.957 108.647 80.676 66.5837 77.6279C58.3282 106.661 54.2014 167.725 103.739 179.717ZM103.739 179.717C96.5403 178.603 81.8958 165.443 80.9035 121.717M149.975 170.102C142.213 175.83 122.068 185.666 103.591 179.187L80.6372 251.96M80.6372 251.96L74.489 271.452M80.6372 251.96C76.8779 258.91 75.0099 265.863 74.489 271.452M80.6372 251.96C90.5396 233.651 113.564 215.356 159.657 222.035C152.878 247.778 126.354 293.703 74.489 271.452M74.489 271.452C87.1445 270.968 117.176 265.204 136.056 246.018M74.489 271.452C87.2801 186.434 51.1106 163.696 31.427 162.954C14.7345 230.727 53.1798 263.525 74.489 271.452ZM74.489 271.452C57.7219 249.474 54.9361 223.886 55.6391 213.84M74.489 271.452C68.7722 287.598 57.717 322.763 57.7311 338.233M57.7716 339.742C70.2711 316.762 106.971 277.037 153.775 301.978C144.45 327.339 112.194 370.397 57.7716 339.742ZM57.7716 339.742C69.7043 340.555 97.1911 338.539 111.676 323.976M57.7716 339.742C39.0107 336.306 1.53047 317.625 1.69737 270.393C15.7478 262.052 46.6252 263.943 57.7311 338.233M57.7716 339.742C57.7449 339.263 57.7316 338.759 57.7311 338.233M57.7716 339.742C49.2438 333.227 30.7935 315.346 25.2152 295.946M201.835 2.15642C211.124 30.7572 207.247 95.2332 129.184 122.955C126.024 88.8128 138.479 16.5785 201.835 2.15642Z" stroke="#CDC6C3" stroke-width="3"/>
</svg>
